<svg xmlns="http://www.w3.org/2000/svg" xmlns:xlink="http://www.w3.org/1999/xlink" width="250" zoomAndPan="magnify" viewBox="0 0 187.5 187.499992" height="250" preserveAspectRatio="xMidYMid meet" version="1.0"><path fill="#6339af" d="M 106.300781 34.152344 C 108.746094 35.21875 111.019531 36.5625 113.285156 37.964844 L 113.285156 38.773438 L 112.097656 39.308594 C 106.992188 41.699219 102.183594 44.730469 98.316406 48.886719 L 97.433594 50.226562 L 96.699219 51.3125 L 95.890625 51.3125 L 95.585938 52.175781 C 95.082031 53.335938 95.082031 53.335938 94.347656 54.347656 C 91.871094 57.949219 90.867188 62.464844 90.46875 66.75 C 90.417969 67.359375 90.371094 67.972656 90.328125 68.582031 L 90.257812 69.457031 C 90.140625 71.421875 90.425781 72.90625 91.035156 74.777344 L 91.035156 75.585938 L 91.84375 75.585938 L 91.980469 74.058594 C 92.820312 66.582031 95.179688 59.199219 99.457031 52.984375 C 103.371094 47.953125 107.742188 44.492188 113.601562 42.027344 C 116.972656 40.933594 120.222656 40.648438 123.753906 40.667969 L 125.050781 40.675781 C 128.011719 40.722656 130.742188 40.886719 133.511719 42.007812 L 134.601562 42.445312 C 138.4375 44.257812 141.25 47.445312 144.003906 50.589844 L 144.4375 51.3125 L 144.03125 52.527344 L 143.304688 52.351562 C 140.699219 51.769531 138.203125 51.527344 135.535156 51.71875 L 134.320312 52.125 L 132.78125 52.300781 C 131.3125 52.476562 130.046875 52.808594 128.660156 53.335938 L 127.824219 53.621094 C 122.449219 55.570312 117.523438 58.808594 113.691406 63.046875 C 112.976562 64.128906 112.53125 65.066406 112.070312 66.28125 C 113.019531 67.324219 114.011719 67.964844 115.234375 68.660156 C 116.894531 69.636719 118.359375 70.621094 119.757812 71.945312 L 119.757812 72.753906 L 120.566406 72.753906 C 122.015625 74.421875 123.386719 76.292969 123.980469 78.445312 C 124.289062 80.589844 124.554688 82.511719 123.929688 84.617188 C 123.050781 86.773438 121.898438 88.589844 120.164062 90.152344 C 117.054688 92.511719 113.316406 93.796875 109.644531 95.003906 L 108.835938 95.003906 L 108.835938 95.8125 C 116.035156 95.570312 116.035156 95.570312 122.742188 93.109375 C 125.117188 91.570312 126.398438 89.664062 127.773438 87.242188 C 128.589844 84.617188 128.882812 81.972656 128.480469 79.242188 C 127.648438 75.863281 126.078125 72.824219 123.753906 70.234375 C 121.75 68.34375 119.429688 66.632812 116.925781 65.472656 C 119.066406 62.515625 121.929688 60.832031 125.019531 59 L 125.90625 58.464844 C 131.09375 55.613281 137.019531 55.144531 142.800781 55.21875 C 146.882812 55.371094 151.042969 56.535156 154.621094 58.535156 C 158.605469 61.054688 161.792969 63.535156 164.144531 67.683594 C 165.535156 70.433594 166.351562 73.296875 166.28125 76.394531 C 165.570312 81.769531 163.722656 86.5 161.425781 91.363281 C 163.898438 88.964844 166.316406 86.578125 167.496094 83.273438 C 167.964844 81.398438 168.355469 79.511719 168.707031 77.609375 L 169.519531 77.609375 C 170.128906 78.378906 170.128906 78.378906 170.78125 79.378906 L 171.441406 80.375 C 171.945312 81.25 171.945312 81.25 171.945312 82.058594 L 173.160156 82.464844 C 173.59375 83.089844 173.59375 83.089844 173.984375 83.890625 L 174.414062 84.761719 L 174.851562 85.675781 L 175.304688 86.585938 C 176.394531 88.816406 176.394531 88.816406 176.394531 89.746094 L 177.203125 89.746094 C 177.535156 90.765625 177.863281 91.785156 178.191406 92.804688 L 178.472656 93.667969 C 180.023438 98.546875 180.222656 104.097656 179.152344 109.113281 C 178.011719 113.324219 176.449219 116.804688 173.5625 120.085938 L 172.644531 121.152344 C 168.734375 125.601562 168.734375 125.601562 166.230469 126.457031 C 162.222656 127.613281 158.359375 126.757812 154.367188 125.925781 C 147.496094 124.511719 140.484375 123.65625 133.511719 124.941406 C 132.613281 125.007812 131.710938 125.066406 130.808594 125.117188 C 128.625 125.261719 126.523438 125.535156 124.378906 125.964844 C 123.5 126.132812 122.617188 126.273438 121.730469 126.382812 L 120.566406 126.558594 L 120.164062 126.964844 C 119.238281 127.164062 118.3125 127.347656 117.382812 127.519531 C 113.867188 128.199219 110.472656 129.105469 107.078125 130.246094 C 105.863281 130.652344 104.648438 131.050781 103.429688 131.449219 L 100.617188 132.375 L 99.210938 132.832031 C 96.542969 133.714844 93.941406 134.6875 91.355469 135.789062 C 82.894531 139.390625 82.894531 139.390625 78.832031 139.476562 L 78.089844 139.503906 L 77.6875 139.910156 C 71.476562 140.230469 65.574219 139.878906 59.824219 137.28125 C 56.585938 135.574219 53.890625 133.449219 51.683594 130.519531 C 49.832031 127.527344 48.695312 124.15625 48.460938 120.648438 C 48.324219 115.550781 48.917969 110.574219 51.265625 105.976562 C 54.109375 101.277344 57.675781 97.59375 62.488281 94.945312 C 68.519531 91.808594 74.976562 90.839844 81.625 89.820312 C 85.71875 89.191406 89.605469 88.460938 93.464844 86.914062 L 94.753906 86.402344 C 98.347656 84.800781 101.394531 82.371094 103.777344 79.242188 C 104.996094 77.527344 106.121094 75.761719 107.21875 73.96875 L 106.652344 74.398438 C 98.886719 80.277344 91.585938 83.695312 81.960938 85.277344 C 74.390625 86.523438 74.390625 86.523438 67.027344 88.65625 C 65.753906 89.101562 64.789062 89.34375 63.429688 89.257812 C 61.261719 88.632812 59.609375 87.386719 57.9375 85.902344 C 56.890625 84.703125 56.144531 83.476562 55.4375 82.058594 C 55.152344 80.054688 55.210938 78.257812 55.878906 76.335938 C 57.082031 73.789062 58.390625 71.582031 60.695312 69.921875 C 61.679688 69.296875 62.683594 68.71875 63.703125 68.152344 L 64.464844 67.730469 C 66.316406 66.761719 67.914062 66.445312 70 66.28125 L 70.324219 67.539062 L 70.757812 69.191406 L 70.972656 70.015625 C 71.285156 71.203125 71.617188 72.34375 72.074219 73.484375 C 72.425781 74.375 72.425781 74.375 72.425781 75.585938 L 73.234375 75.585938 L 73.191406 74.144531 C 72.996094 64.324219 74.269531 54.753906 78.890625 45.984375 C 79.796875 44.367188 80.910156 42.984375 82.136719 41.605469 L 82.710938 40.859375 C 85.246094 37.621094 88.914062 35.515625 92.652344 33.917969 C 96.957031 32.359375 102.027344 32.671875 106.300781 34.152344 M 134.320312 67.902344 L 135.183594 68.582031 C 138.691406 71.414062 142.085938 74.246094 144.03125 78.417969 C 145.214844 82.296875 145.324219 86.457031 144.546875 90.4375 C 144.171875 91.714844 143.730469 92.964844 143.222656 94.195312 L 142.820312 95.246094 C 141.074219 99.265625 137.765625 102.394531 134.371094 105.066406 C 129.515625 108.527344 123.292969 110.964844 117.332031 111.589844 C 108.632812 112.082031 101.375 110.082031 93.316406 107.03125 C 88.449219 105.199219 83.703125 104.644531 78.523438 105.257812 C 77.550781 105.441406 76.613281 105.660156 75.664062 105.929688 L 74.738281 106.179688 C 71.78125 107.074219 69.054688 108.335938 66.863281 110.554688 C 65.082031 112.765625 64.148438 115.316406 63.527344 118.0625 C 63.359375 120.511719 63.730469 122.65625 64.664062 124.917969 C 65.722656 127.003906 66.84375 128.429688 68.8125 129.71875 C 69.609375 130.238281 69.609375 130.238281 70.402344 130.605469 L 71.617188 130.605469 L 71.214844 129.390625 L 70.402344 129.390625 L 70.050781 128.675781 C 69.773438 128.125 69.484375 127.582031 69.175781 127.050781 C 68.167969 125.25 67.660156 123.625 67.535156 121.5625 C 67.613281 119.292969 68.132812 117.199219 69.25 115.214844 C 70.890625 113.058594 73.210938 111.835938 75.664062 110.78125 C 79.371094 109.523438 83.523438 109.617188 87.355469 110.222656 C 90.832031 110.941406 94.15625 112.082031 97.507812 113.234375 C 105.21875 115.863281 112.976562 117.042969 121.097656 115.585938 C 127.921875 114.09375 133.726562 111.269531 138.898438 106.558594 C 143.234375 102.472656 146.59375 98.46875 148.578125 92.796875 C 149.855469 88.535156 149.796875 83.304688 148.835938 78.976562 C 147.851562 75.710938 146.082031 72.855469 143.597656 70.519531 C 141.832031 69.171875 139.726562 68.339844 137.558594 67.902344 C 136.984375 67.875 136.414062 67.867188 135.839844 67.875 Z M 167.898438 99.859375 C 167.265625 100.5 167.265625 100.5 166.609375 101.328125 C 164.867188 103.359375 163.171875 105.214844 160.667969 106.28125 C 157.308594 107.375 153.546875 106.628906 150.097656 106.332031 C 151.59375 108.269531 153.015625 109.460938 155.257812 110.480469 C 157.613281 111.023438 159.75 111.019531 162.085938 110.378906 C 164.222656 109.109375 165.953125 107.5625 167.234375 105.410156 C 168.101562 103.578125 168.535156 101.875 168.707031 99.859375 Z M 167.898438 99.859375 " fill-opacity="1" fill-rule="nonzero"/><path fill="#986cc7" d="M 106.300781 34.152344 C 108.746094 35.21875 111.019531 36.5625 113.285156 37.964844 L 113.285156 38.773438 L 112.097656 39.308594 C 106.992188 41.699219 102.183594 44.730469 98.316406 48.886719 L 97.433594 50.226562 L 96.699219 51.3125 L 95.890625 51.3125 L 95.585938 52.175781 C 95.082031 53.335938 95.082031 53.335938 94.347656 54.347656 C 91.871094 57.949219 90.867188 62.464844 90.46875 66.75 C 90.417969 67.359375 90.371094 67.972656 90.328125 68.582031 L 90.257812 69.457031 C 90.140625 71.421875 90.425781 72.90625 91.035156 74.777344 L 91.035156 75.585938 L 91.84375 75.585938 L 91.980469 74.058594 C 92.820312 66.582031 95.179688 59.199219 99.457031 52.984375 C 103.371094 47.953125 107.742188 44.492188 113.601562 42.027344 C 116.972656 40.933594 120.222656 40.648438 123.753906 40.667969 L 125.050781 40.675781 C 128.011719 40.722656 130.742188 40.886719 133.511719 42.007812 L 134.601562 42.445312 C 138.4375 44.257812 141.25 47.445312 144.003906 50.589844 L 144.4375 51.3125 L 144.03125 52.527344 L 143.304688 52.351562 C 140.699219 51.769531 138.203125 51.527344 135.535156 51.71875 L 134.320312 52.125 L 132.78125 52.300781 C 131.3125 52.476562 130.046875 52.808594 128.660156 53.335938 L 127.824219 53.621094 C 122.449219 55.570312 117.523438 58.808594 113.691406 63.046875 C 112.976562 64.128906 112.53125 65.066406 112.070312 66.28125 C 113.019531 67.324219 114.011719 67.964844 115.234375 68.660156 C 116.894531 69.636719 118.359375 70.621094 119.757812 71.945312 L 119.757812 72.753906 L 120.566406 72.753906 C 121.25 73.582031 121.25 73.582031 122.007812 74.675781 L 122.769531 75.757812 C 123.328125 76.683594 123.625 77.363281 123.804688 78.417969 L 122.996094 78.824219 C 122.820312 79.84375 122.820312 79.84375 122.765625 81.023438 C 122.628906 83.199219 122.628906 83.199219 122.1875 84.082031 L 121.375 84.082031 L 121.375 85.296875 C 120.023438 86.953125 118.507812 87.871094 116.621094 88.859375 C 115.621094 89.375 115.621094 89.375 114.375 90.203125 C 112.433594 91.324219 110.207031 91.753906 108.027344 92.171875 L 106.8125 92.171875 L 106.8125 92.984375 L 105.597656 92.984375 L 105.195312 94.195312 L 103.578125 93.792969 L 103.070312 94.574219 L 102.363281 95.410156 C 101.617188 95.640625 101.617188 95.640625 100.746094 95.8125 L 99.890625 95.988281 L 99 96.167969 C 97.304688 96.539062 95.851562 97.125 94.273438 97.835938 C 92.636719 98.46875 91.117188 98.09375 89.417969 97.835938 L 89.011719 98.644531 C 88.347656 98.9375 87.671875 99.207031 86.992188 99.457031 L 86.585938 98.644531 L 85.777344 99.457031 C 84.8125 99.445312 84.8125 99.445312 83.703125 99.304688 L 82.585938 99.167969 L 81.730469 99.050781 L 81.730469 100.265625 L 80.113281 100.667969 L 80.921875 101.476562 L 78.496094 102.285156 L 78.496094 101.074219 L 78.089844 102.285156 C 77.175781 102.65625 77.175781 102.65625 76.015625 102.945312 L 74.800781 103.246094 C 73.054688 103.628906 71.390625 103.90625 69.59375 103.90625 L 68.785156 104.714844 C 67.925781 104.5625 67.925781 104.5625 67.167969 104.308594 L 66.359375 105.523438 L 65.550781 104.714844 L 64.335938 105.117188 L 63.929688 104.714844 L 63.222656 105.5 C 62.3125 106.332031 62.3125 106.332031 61.453125 106.660156 L 60.695312 106.738281 L 59.886719 106.332031 L 59.480469 107.546875 L 58.671875 107.140625 L 58.265625 107.949219 C 57.230469 108.203125 57.230469 108.203125 56.246094 108.355469 L 55.839844 107.546875 L 55.03125 108.757812 C 53.96875 109.242188 53.96875 109.242188 53.007812 109.570312 C 52.726562 108.691406 52.589844 108.058594 52.714844 107.136719 C 53.691406 104.007812 55.632812 101.671875 57.941406 99.386719 C 58.699219 98.695312 58.699219 98.695312 59.078125 97.835938 L 59.808594 97.683594 L 60.695312 97.433594 L 61.414062 96.683594 C 63.488281 94.675781 66.460938 93.660156 69.21875 92.914062 C 70.953125 92.484375 72.699219 92.121094 74.449219 91.769531 L 75.300781 91.589844 C 78.550781 90.910156 81.742188 90.453125 85.058594 90.25 C 86.476562 90.125 87.667969 89.789062 89.011719 89.339844 L 90.125 89.140625 C 91.144531 88.96875 91.144531 88.96875 92.25 88.128906 C 92.78125 87.894531 93.320312 87.675781 93.867188 87.46875 C 94.144531 87.367188 94.417969 87.261719 94.703125 87.152344 C 95.484375 86.914062 95.484375 86.914062 96.699219 86.914062 L 96.699219 86.105469 C 97.453125 85.566406 97.453125 85.566406 98.445312 84.96875 C 99.960938 83.988281 100.710938 83.269531 101.554688 81.65625 C 101.984375 81.160156 102.421875 80.671875 102.867188 80.1875 C 104.582031 78.28125 105.894531 76.15625 107.21875 73.96875 L 106.652344 74.398438 C 98.886719 80.277344 91.585938 83.695312 81.960938 85.277344 C 74.390625 86.523438 74.390625 86.523438 67.027344 88.65625 C 65.753906 89.101562 64.789062 89.34375 63.429688 89.257812 C 61.261719 88.632812 59.609375 87.386719 57.9375 85.902344 C 56.890625 84.703125 56.144531 83.476562 55.4375 82.058594 C 55.152344 80.054688 55.210938 78.257812 55.878906 76.335938 C 57.082031 73.789062 58.390625 71.582031 60.695312 69.921875 C 61.679688 69.296875 62.683594 68.71875 63.703125 68.152344 L 64.464844 67.730469 C 66.316406 66.761719 67.914062 66.445312 70 66.28125 L 70.324219 67.539062 L 70.757812 69.191406 L 70.972656 70.015625 C 71.285156 71.203125 71.617188 72.34375 72.074219 73.484375 C 72.425781 74.375 72.425781 74.375 72.425781 75.585938 L 73.234375 75.585938 L 73.191406 74.144531 C 72.996094 64.324219 74.269531 54.753906 78.890625 45.984375 C 79.796875 44.367188 80.910156 42.984375 82.136719 41.605469 L 82.710938 40.859375 C 85.246094 37.621094 88.914062 35.515625 92.652344 33.917969 C 96.957031 32.359375 102.027344 32.671875 106.300781 34.152344 " fill-opacity="1" fill-rule="nonzero"/><path fill="#986cc7" d="M 81.328125 35.941406 L 81.328125 37.558594 C 80.582031 38.625 80.582031 38.625 79.558594 39.859375 C 74.210938 46.554688 71.648438 53.253906 70.152344 61.628906 L 69.59375 62.640625 C 68.203125 63.097656 68.203125 63.097656 67.332031 63.257812 C 64.175781 63.878906 61.554688 65.085938 59.101562 67.15625 L 58.265625 67.902344 L 57.496094 68.570312 C 55.011719 70.878906 53.296875 73.652344 52.25 76.875 C 51.625 79.261719 51.632812 81.242188 52.25 83.628906 C 52.960938 85.792969 53.941406 87.613281 55.4375 89.339844 C 56.597656 90.367188 57.800781 91.292969 59.078125 92.171875 L 58.671875 93.386719 C 57.757812 94.113281 57.757812 94.113281 56.597656 94.902344 C 51.3125 98.679688 48.257812 103.746094 45.472656 109.523438 C 44.355469 112.0625 44.015625 114.449219 43.921875 117.214844 L 43.703125 118.0625 C 42.730469 118.839844 41.851562 118.914062 40.621094 119.121094 C 34.171875 119.792969 27.617188 119.550781 21.597656 116.9375 C 17.140625 114.648438 13.507812 111.199219 10.785156 107.015625 C 9.296875 104.476562 8.386719 101.90625 7.699219 99.050781 L 7.464844 98.074219 C 6.765625 93.757812 7.117188 89.023438 8.507812 84.890625 C 10.496094 80.097656 13.160156 75.976562 17.253906 72.722656 C 20.355469 70.585938 23.832031 69.382812 27.546875 68.8125 C 29.699219 68.675781 31.839844 68.675781 33.996094 68.710938 L 33.847656 69.367188 C 33.609375 70.492188 33.390625 71.621094 33.1875 72.753906 L 32.910156 74.265625 C 32.347656 77.699219 32.398438 80.367188 33.296875 83.761719 C 33.589844 84.890625 33.589844 84.890625 33.589844 86.105469 L 34.398438 86.105469 C 34.964844 86.871094 34.964844 86.871094 35.585938 87.875 C 36.367188 89.132812 36.785156 89.71875 38.039062 90.554688 L 37.789062 89.59375 L 37.457031 88.304688 L 37.132812 87.039062 C 35.933594 81.78125 35.84375 75.746094 37.164062 70.503906 C 38.722656 65.90625 41.050781 61.632812 44.511719 58.191406 C 47.683594 55.488281 51.378906 53.203125 55.4375 52.125 C 60.300781 51.304688 65.296875 51.363281 70 52.933594 C 68.09375 50.847656 66.03125 49.398438 63.398438 48.355469 C 59.847656 47.695312 56.90625 48.058594 53.484375 49.203125 C 51.636719 49.914062 49.886719 50.765625 48.152344 51.71875 C 48.324219 50.664062 48.582031 50.066406 49.207031 49.183594 L 50.023438 48.203125 C 51.109375 46.890625 52.164062 45.570312 53.1875 44.210938 C 55.871094 40.792969 58.453125 38.375 62.441406 36.523438 C 68.921875 33.992188 74.695312 34.714844 81.328125 35.941406 M 21.859375 90.152344 C 20.933594 90.460938 20.933594 90.460938 20.238281 90.960938 C 21.203125 95.113281 22.238281 99.214844 24.886719 102.664062 C 26.601562 104.367188 28.753906 105.015625 31.042969 105.652344 C 33.535156 106.167969 35.972656 106.183594 38.445312 105.523438 L 38.445312 104.714844 C 38.019531 104.625 37.59375 104.535156 37.15625 104.445312 C 31.425781 103.183594 31.425781 103.183594 29.066406 101.371094 C 26.78125 99.191406 25.757812 96.785156 24.867188 93.816406 L 24.652344 93.003906 C 24.425781 92.136719 24.425781 92.136719 23.882812 90.960938 C 22.949219 90.261719 22.949219 90.261719 21.859375 90.152344 " fill-opacity="1" fill-rule="nonzero"/><path fill="#4a23a2" d="M 155.332031 130.007812 C 156.433594 130.261719 157.496094 130.289062 158.625 130.328125 L 160.050781 130.378906 L 161.527344 130.429688 L 163.027344 130.480469 C 164.246094 130.523438 165.464844 130.566406 166.6875 130.605469 C 166.808594 134.660156 166.207031 139.015625 164.519531 142.738281 C 163.960938 143.601562 163.335938 144.410156 162.640625 145.167969 L 161.996094 145.925781 C 159.785156 148.347656 157.183594 149.984375 154.074219 151.015625 C 148.199219 152.832031 141.929688 153.714844 135.8125 152.578125 C 131.617188 151.539062 128.035156 149.882812 124.890625 146.875 C 124.195312 146.167969 123.503906 145.457031 122.816406 144.738281 L 121.75 143.652344 C 119.234375 141.082031 119.234375 141.082031 118.117188 139.664062 C 117.429688 138.816406 116.792969 138.1875 115.933594 137.523438 L 115.175781 136.9375 L 114.398438 136.34375 L 113.601562 135.730469 C 112.957031 135.234375 112.3125 134.738281 111.667969 134.246094 C 112.476562 133.4375 112.476562 133.4375 113.84375 133.066406 C 114.433594 132.9375 115.027344 132.8125 115.621094 132.691406 L 116.582031 132.488281 C 117.613281 132.269531 118.648438 132.058594 119.683594 131.84375 L 120.742188 131.625 C 131.984375 129.285156 143.976562 126.910156 155.332031 130.007812 " fill-opacity="1" fill-rule="nonzero"/><path fill="#8051bc" d="M 150.710938 56.832031 C 152.347656 57.46875 153.84375 58.113281 155.359375 59 L 156.597656 59.707031 C 158.175781 60.917969 159.367188 62.316406 160.617188 63.855469 L 161.28125 64.628906 C 162.964844 66.695312 164.105469 68.921875 164.664062 71.542969 C 164.359375 73.035156 164.359375 73.035156 163.855469 73.96875 L 164.664062 74.375 C 164.488281 75.082031 164.3125 75.789062 164.132812 76.496094 L 163.832031 77.691406 C 163.445312 78.839844 163.070312 79.566406 162.234375 80.441406 C 160.996094 80.566406 160.996094 80.566406 159.808594 80.441406 L 159 80.035156 L 158.59375 82.058594 L 157.785156 82.058594 L 157.382812 81.65625 L 156.167969 82.464844 L 155.359375 82.058594 L 154.953125 82.867188 L 154.144531 83.25 L 153.335938 83.679688 L 152.929688 84.890625 L 152.527344 83.679688 L 151.3125 83.273438 C 150.941406 82.390625 150.941406 82.390625 150.65625 81.300781 L 150.363281 80.21875 L 150.097656 79.226562 L 149.695312 78.015625 L 148.886719 78.015625 L 148.382812 77.070312 L 147.722656 75.839844 L 147.070312 74.617188 C 145.910156 72.613281 143.949219 70.996094 141.964844 69.824219 C 139.722656 68.738281 137.605469 68.410156 135.132812 68.304688 L 135.972656 68.957031 L 137.078125 69.820312 L 138.171875 70.675781 C 139.078125 71.457031 139.753906 72.152344 140.390625 73.160156 L 140.390625 73.96875 L 141.375 75.054688 C 141.9375 75.699219 141.9375 75.699219 142.414062 76.394531 C 142.691406 77.9375 142.691406 77.9375 142.816406 79.226562 L 143.625 79.632812 L 142.816406 79.632812 L 142.921875 80.371094 L 143.046875 81.351562 L 143.171875 82.320312 C 143.222656 83.273438 143.097656 83.980469 142.816406 84.890625 L 142.007812 84.890625 L 142.007812 86.914062 L 139.582031 86.105469 L 139.355469 86.863281 L 138.773438 87.722656 C 136.746094 88.5 134.621094 88.777344 132.484375 89.113281 C 131.394531 89.300781 131.394531 89.300781 130.277344 90.152344 L 128.660156 90.152344 L 129.054688 89.117188 C 130.21875 85.179688 129.484375 80.753906 128.660156 76.800781 L 127.847656 76.800781 L 127.242188 75.433594 C 125.402344 71.804688 122.878906 69.242188 119.5625 66.925781 C 118.699219 66.382812 117.851562 65.90625 116.925781 65.472656 C 119.066406 62.515625 121.929688 60.832031 125.019531 59 L 125.90625 58.464844 C 133.179688 54.464844 142.988281 54.105469 150.710938 56.832031 " fill-opacity="1" fill-rule="nonzero"/><path fill="#8051bc" d="M 111.261719 66.6875 C 114.398438 67.867188 117.324219 69.640625 119.757812 71.945312 L 119.757812 72.753906 L 120.566406 72.753906 C 121.25 73.582031 121.25 73.582031 122.007812 74.675781 L 122.769531 75.757812 C 123.328125 76.683594 123.625 77.363281 123.804688 78.417969 L 122.996094 78.824219 C 122.820312 79.84375 122.820312 79.84375 122.765625 81.023438 C 122.628906 83.199219 122.628906 83.199219 122.1875 84.082031 L 121.375 84.082031 L 121.375 85.296875 C 120.023438 86.953125 118.507812 87.871094 116.621094 88.859375 C 115.621094 89.375 115.621094 89.375 114.375 90.203125 C 112.433594 91.324219 110.207031 91.753906 108.027344 92.171875 L 106.8125 92.171875 L 106.8125 92.984375 L 105.597656 92.984375 L 105.195312 94.195312 L 103.578125 93.792969 L 103.070312 94.574219 L 102.363281 95.410156 C 101.617188 95.640625 101.617188 95.640625 100.746094 95.8125 L 99.890625 95.988281 L 99 96.167969 C 97.304688 96.539062 95.851562 97.125 94.273438 97.835938 C 92.636719 98.46875 91.117188 98.09375 89.417969 97.835938 L 89.011719 98.644531 C 88.347656 98.9375 87.671875 99.207031 86.992188 99.457031 L 86.585938 98.644531 L 85.777344 99.457031 C 84.8125 99.445312 84.8125 99.445312 83.703125 99.304688 L 82.585938 99.167969 L 81.730469 99.050781 L 81.730469 100.265625 L 80.113281 100.667969 L 80.921875 101.476562 L 78.496094 102.285156 L 78.496094 101.074219 L 78.089844 102.285156 C 77.175781 102.65625 77.175781 102.65625 76.015625 102.945312 L 74.800781 103.246094 C 73.054688 103.628906 71.390625 103.90625 69.59375 103.90625 L 68.785156 104.714844 C 67.925781 104.5625 67.925781 104.5625 67.167969 104.308594 L 66.359375 105.523438 L 65.550781 104.714844 L 64.335938 105.117188 L 63.929688 104.714844 L 63.222656 105.5 C 62.3125 106.332031 62.3125 106.332031 61.453125 106.660156 L 60.695312 106.738281 L 59.886719 106.332031 L 59.480469 107.546875 L 58.671875 107.140625 L 58.265625 107.949219 C 57.230469 108.203125 57.230469 108.203125 56.246094 108.355469 L 55.839844 107.546875 L 55.03125 108.757812 C 53.96875 109.242188 53.96875 109.242188 53.007812 109.570312 C 52.726562 108.691406 52.589844 108.058594 52.714844 107.136719 C 53.691406 104.007812 55.632812 101.671875 57.941406 99.386719 C 58.699219 98.695312 58.699219 98.695312 59.078125 97.835938 L 59.808594 97.683594 L 60.695312 97.433594 L 61.414062 96.683594 C 63.488281 94.675781 66.460938 93.660156 69.21875 92.914062 C 70.953125 92.484375 72.699219 92.121094 74.449219 91.769531 L 75.300781 91.589844 C 78.550781 90.910156 81.742188 90.453125 85.058594 90.25 C 86.476562 90.125 87.667969 89.789062 89.011719 89.339844 L 90.125 89.140625 C 91.144531 88.96875 91.144531 88.96875 92.25 88.128906 C 92.78125 87.894531 93.320312 87.675781 93.867188 87.46875 C 94.144531 87.367188 94.417969 87.261719 94.703125 87.152344 C 95.484375 86.914062 95.484375 86.914062 96.699219 86.914062 L 96.699219 86.105469 C 97.453125 85.566406 97.453125 85.566406 98.445312 84.96875 C 99.960938 83.988281 100.710938 83.269531 101.554688 81.65625 C 101.984375 81.160156 102.421875 80.671875 102.867188 80.1875 C 104.582031 78.28125 105.894531 76.15625 107.21875 73.96875 L 106.652344 74.398438 C 98.886719 80.277344 91.585938 83.695312 81.960938 85.277344 C 74.390625 86.523438 74.390625 86.523438 67.027344 88.65625 C 65.753906 89.101562 64.789062 89.34375 63.429688 89.257812 C 61.234375 88.625 59.570312 87.375 57.914062 85.828125 L 57.054688 84.890625 L 56.246094 84.082031 L 56.648438 82.867188 L 57.457031 83.957031 C 58.714844 85.457031 60.15625 86.460938 61.910156 87.320312 C 63.101562 87.640625 63.910156 87.820312 65.109375 87.546875 L 65.953125 87.320312 C 66.503906 87.195312 67.050781 87.074219 67.601562 86.953125 L 68.519531 86.746094 C 69.15625 86.605469 69.792969 86.464844 70.429688 86.328125 C 71.238281 86.144531 72.035156 85.925781 72.832031 85.699219 L 73.234375 84.890625 L 75.257812 85.296875 L 75.257812 84.488281 L 76.472656 84.082031 L 76.472656 84.890625 L 77.105469 84.511719 C 78.367188 83.960938 79.558594 83.84375 80.921875 83.679688 L 82.058594 83.398438 L 82.945312 83.273438 L 83.753906 84.082031 L 83.753906 82.867188 L 85.371094 82.464844 L 85.777344 83.273438 L 86.179688 82.464844 C 87.023438 82.164062 87.023438 82.164062 88.128906 81.882812 L 89.335938 81.566406 C 90.210938 81.355469 91.085938 81.144531 91.964844 80.945312 L 93.261719 80.644531 L 94.460938 80.378906 C 95.5625 80.011719 95.921875 79.648438 96.699219 78.824219 C 97.632812 78.378906 98.582031 78.011719 99.546875 77.636719 L 100.339844 77.207031 L 100.746094 75.992188 C 101.476562 75.5625 101.476562 75.5625 102.363281 75.183594 C 103.234375 74.796875 103.234375 74.796875 103.980469 74.375 L 104.386719 73.5625 C 105.421875 73.3125 105.421875 73.3125 106.410156 73.160156 L 106.8125 71.945312 C 107.820312 71.394531 108.851562 70.96875 109.910156 70.519531 C 110.929688 69.984375 110.929688 69.984375 111.417969 68.921875 L 111.667969 67.902344 Z M 111.261719 66.6875 " fill-opacity="1" fill-rule="nonzero"/><path fill="#4a23a2" d="M 178.417969 102.691406 L 178.820312 103.5 L 179.632812 103.5 C 179.914062 107.578125 178.605469 111.632812 176.976562 115.324219 C 176.050781 117.109375 174.886719 118.582031 173.5625 120.085938 L 172.644531 121.152344 C 168.734375 125.601562 168.734375 125.601562 166.230469 126.457031 C 162.222656 127.613281 158.359375 126.757812 154.367188 125.925781 C 147.496094 124.511719 140.484375 123.65625 133.511719 124.941406 C 132.613281 125.007812 131.710938 125.066406 130.808594 125.117188 C 128.625 125.261719 126.523438 125.535156 124.378906 125.964844 C 123.5 126.132812 122.617188 126.273438 121.730469 126.382812 L 120.566406 126.558594 L 120.164062 126.964844 C 119.238281 127.164062 118.3125 127.347656 117.382812 127.519531 C 113.867188 128.199219 110.472656 129.105469 107.078125 130.246094 C 105.863281 130.652344 104.648438 131.050781 103.429688 131.449219 L 100.617188 132.375 L 99.210938 132.832031 C 96.542969 133.714844 93.941406 134.6875 91.355469 135.789062 C 82.894531 139.390625 82.894531 139.390625 78.832031 139.476562 L 78.089844 139.503906 L 77.6875 139.910156 C 71.476562 140.230469 65.574219 139.878906 59.824219 137.28125 C 56.472656 135.511719 53.921875 133.324219 51.578125 130.359375 C 50.957031 129.34375 50.734375 128.542969 50.582031 127.367188 L 51.238281 128.203125 L 52.199219 129.390625 L 52.691406 130.042969 C 54.453125 132.273438 56.640625 134.003906 59.078125 135.460938 C 59.75 135.605469 60.421875 135.738281 61.097656 135.863281 L 62.039062 136.441406 C 63.390625 137.234375 64.777344 137.59375 66.28125 137.960938 L 67.132812 138.179688 C 67.816406 138.355469 68.503906 138.527344 69.191406 138.695312 L 69.191406 137.886719 L 69.875 138.140625 L 70.808594 138.292969 L 71.667969 137.914062 C 72.835938 137.480469 73.480469 137.449219 74.703125 137.484375 C 78.148438 137.550781 81.011719 136.828125 84.160156 135.460938 C 85.433594 135.027344 86.710938 134.609375 87.996094 134.203125 C 89.230469 133.804688 90.375 133.363281 91.535156 132.78125 C 92.855469 132.121094 94.03125 132.007812 95.484375 131.820312 C 96.027344 131.554688 96.566406 131.285156 97.105469 131.011719 L 98.722656 131.011719 L 98.722656 130.199219 L 100.011719 130.050781 C 101.375 129.824219 102.316406 129.515625 103.578125 128.988281 C 104.585938 128.679688 105.597656 128.378906 106.609375 128.089844 C 107.628906 127.789062 107.628906 127.789062 108.609375 127.363281 C 109.757812 126.921875 110.863281 126.675781 112.070312 126.433594 C 113.839844 126.070312 115.589844 125.6875 117.339844 125.25 C 121.183594 124.296875 124.9375 123.484375 128.882812 123.105469 C 130.351562 122.910156 131.6875 122.515625 133.109375 122.109375 L 134.726562 122.109375 C 135.273438 122.058594 135.820312 122 136.363281 121.933594 L 137.300781 121.820312 C 137.9375 121.746094 138.578125 121.667969 139.214844 121.589844 C 140.765625 121.40625 142.273438 121.28125 143.835938 121.300781 L 145.246094 121.300781 L 145.648438 120.894531 C 146.691406 120.78125 147.738281 120.714844 148.785156 120.644531 L 149.695312 120.492188 L 150.097656 119.683594 L 150.097656 120.492188 L 150.910156 120.492188 L 151.3125 118.46875 C 152.117188 118.316406 152.929688 118.179688 153.742188 118.0625 L 154.144531 118.46875 L 154.953125 117.660156 L 155.761719 118.46875 C 156.597656 118.402344 156.597656 118.402344 157.507812 118.140625 L 158.488281 117.894531 L 159.402344 117.660156 C 161.347656 117.253906 161.347656 117.253906 161.832031 117.253906 C 162.433594 117.015625 163.03125 116.769531 163.625 116.523438 C 165.425781 115.789062 167.21875 115.230469 169.101562 114.75 L 169.921875 114.421875 L 170.730469 113.210938 L 171.4375 113.460938 L 172.347656 113.613281 C 173.246094 113.265625 173.246094 113.265625 173.96875 112.804688 L 173.96875 111.996094 L 175.179688 111.996094 L 175.308594 111.375 C 175.773438 109.707031 176.476562 108.128906 177.132812 106.53125 C 177.648438 105.265625 178.144531 104.035156 178.417969 102.691406 " fill-opacity="1" fill-rule="nonzero"/><path fill="#4a23a2" d="M 106.941406 135.207031 L 108.027344 135.460938 L 108.027344 136.269531 L 108.761719 136.421875 C 109.644531 136.671875 109.644531 136.671875 110.859375 137.484375 L 110.859375 138.292969 L 111.722656 138.558594 C 113.167969 139.234375 114.160156 140.195312 115.257812 141.324219 L 115.90625 141.984375 C 119.410156 145.625 122.492188 150.175781 123.96875 155.050781 C 124.84375 158.859375 125.164062 162.710938 125.019531 166.609375 L 124.207031 166.609375 L 123.777344 165.527344 C 121.128906 159.089844 117.511719 153.960938 111.980469 149.664062 C 106.941406 145.910156 101.269531 143.34375 95.449219 141.042969 C 94.632812 140.699219 93.847656 140.3125 93.058594 139.910156 C 94.015625 138.953125 94.714844 138.757812 96 138.34375 L 97.292969 137.917969 L 98.644531 137.484375 C 99.527344 137.195312 100.40625 136.910156 101.285156 136.621094 L 102.46875 136.242188 C 103.582031 135.878906 103.582031 135.878906 104.648438 135.402344 C 105.597656 135.054688 105.597656 135.054688 106.9375 135.207031 " fill-opacity="1" fill-rule="nonzero"/><path fill="#8152bd" d="M 54.222656 88.9375 C 55.453125 89.507812 56.484375 90.1875 57.558594 91.011719 L 58.425781 91.671875 L 59.078125 92.171875 L 58.671875 93.386719 C 57.757812 94.113281 57.757812 94.113281 56.597656 94.902344 C 51.3125 98.679688 48.257812 103.746094 45.472656 109.523438 C 44.355469 112.0625 44.015625 114.449219 43.921875 117.214844 L 43.703125 118.0625 C 42.730469 118.839844 41.851562 118.914062 40.621094 119.121094 C 34.171875 119.792969 27.617188 119.550781 21.597656 116.9375 C 19.46875 115.839844 17.511719 114.492188 15.734375 112.886719 C 13.953125 111.28125 12.410156 109.476562 11.101562 107.46875 C 10.449219 106.433594 9.835938 105.421875 9.316406 104.308594 L 9.722656 103.097656 C 10.285156 103.890625 10.824219 104.699219 11.339844 105.523438 L 11.339844 106.738281 L 12.148438 106.738281 C 12.804688 107.417969 12.804688 107.417969 13.539062 108.304688 C 14.804688 109.832031 16.046875 110.714844 17.8125 111.589844 L 19.136719 112.332031 L 20.621094 113.132812 L 21.363281 113.5625 C 22.179688 114.019531 22.179688 114.019531 23.476562 114.421875 C 24.523438 113.945312 24.523438 113.945312 25.5 113.210938 C 26.820312 112.929688 26.820312 112.929688 28.253906 112.753906 L 29.757812 112.566406 C 30.453125 112.484375 30.453125 112.484375 31.164062 112.402344 L 33.136719 112.148438 L 34.398438 111.996094 L 34.398438 111.1875 L 35.257812 111.261719 C 36.679688 111.171875 37.59375 110.617188 38.847656 109.972656 L 39.660156 110.378906 L 40.0625 109.570312 L 42.085938 110.378906 L 42.414062 109.289062 C 42.867188 108.027344 43.316406 107.007812 44.109375 105.929688 L 45.320312 105.929688 L 45.320312 104.308594 C 45.980469 103.617188 46.652344 102.945312 47.34375 102.285156 C 47.621094 101.75 47.890625 101.210938 48.152344 100.667969 L 49.773438 99.050781 L 49.773438 98.242188 L 50.453125 98.164062 C 51.785156 97.699219 52.445312 96.828125 53.414062 95.8125 C 53.855469 95.457031 54.304688 95.101562 54.753906 94.753906 L 55.839844 93.792969 L 55.839844 92.578125 L 56.648438 92.578125 C 56.03125 91.1875 55.191406 90.101562 54.222656 88.9375 " fill-opacity="1" fill-rule="nonzero"/><path fill="#ab7dd0" d="M 46.535156 48.480469 C 46 49.929688 45.363281 51.167969 44.511719 52.453125 L 43.882812 53.421875 L 43.300781 54.144531 L 42.488281 54.144531 L 42.207031 54.972656 C 41.542969 56.484375 40.664062 57.769531 39.734375 59.128906 C 38.597656 60.796875 37.484375 62.460938 36.472656 64.210938 L 35.613281 65.472656 C 34.265625 66.019531 32.949219 65.863281 31.515625 65.800781 C 28.398438 65.765625 25.574219 66.398438 22.5625 67.140625 C 21.050781 67.496094 21.050781 67.496094 19.835938 67.496094 C 21.542969 62.714844 25.339844 58.625 29.140625 55.359375 C 33.867188 51.605469 40.355469 48.226562 46.535156 48.480469 M 67.976562 35.941406 C 68.675781 36 69.375 36.058594 70.074219 36.117188 L 71.253906 36.21875 C 72.339844 36.335938 73.382812 36.519531 74.449219 36.75 L 74.449219 37.558594 C 74.019531 38.167969 74.019531 38.167969 73.234375 38.773438 C 72.296875 39.066406 71.355469 39.335938 70.402344 39.582031 C 69.878906 40.078125 69.878906 40.078125 69.191406 41.199219 L 67.976562 41.199219 C 66.75 41.421875 65.542969 41.695312 64.335938 42.007812 L 64.335938 41.199219 L 60.289062 42.007812 L 60.289062 41.199219 L 59.757812 41.757812 C 58.789062 42.691406 57.925781 43.203125 56.648438 43.628906 L 56.246094 44.839844 C 55.207031 45.523438 55.207031 45.523438 54.222656 46.054688 C 54.800781 44.261719 55.730469 42.921875 57.054688 41.605469 C 59.429688 39.625 61.773438 38.078125 64.738281 37.15625 L 65.550781 36.75 C 66.359375 36.734375 67.167969 36.734375 67.976562 36.75 Z M 67.976562 35.941406 " fill-opacity="1" fill-rule="nonzero"/><path fill="#4a23a2" d="M 167.898438 99.050781 L 169.113281 99.457031 C 169.125 100.035156 169.132812 100.617188 169.136719 101.199219 L 169.152344 102.179688 C 169.113281 103.097656 169.113281 103.097656 168.707031 104.308594 L 167.898438 104.308594 L 167.796875 105.675781 L 167.496094 107.140625 C 166.761719 107.570312 166.761719 107.570312 165.875 107.949219 L 165.167969 109.089844 C 164.019531 110.714844 162.8125 111.558594 161.023438 112.402344 C 159.554688 112.804688 159.554688 112.804688 158.191406 112.804688 C 156.925781 112.25 156.925781 112.25 155.761719 111.589844 L 154.652344 111.414062 L 153.742188 111.1875 C 153.457031 110.65625 153.1875 110.113281 152.929688 109.570312 L 152.167969 109.40625 L 151.3125 109.164062 C 150.710938 108.503906 150.710938 108.503906 150.199219 107.722656 L 149.675781 106.9375 L 149.289062 106.332031 L 149.695312 105.523438 L 151.175781 105.625 L 153.132812 105.75 L 154.105469 105.820312 C 156.207031 105.949219 158.132812 105.890625 160.214844 105.523438 C 161.503906 104.84375 161.503906 104.84375 162.640625 103.90625 L 163.878906 102.945312 C 164.753906 102.164062 165.449219 101.464844 166.179688 100.566406 C 167.089844 99.457031 167.089844 99.457031 167.898438 99.050781 M 167.898438 99.859375 C 167.265625 100.5 167.265625 100.5 166.609375 101.328125 C 164.867188 103.359375 163.171875 105.214844 160.667969 106.28125 C 157.308594 107.375 153.546875 106.628906 150.097656 106.332031 C 151.59375 108.269531 153.015625 109.460938 155.257812 110.480469 C 157.613281 111.023438 159.75 111.019531 162.085938 110.378906 C 164.222656 109.109375 165.953125 107.5625 167.234375 105.410156 C 168.101562 103.578125 168.535156 101.875 168.707031 99.859375 Z M 139.582031 99.050781 L 140.390625 99.050781 C 139.214844 101.714844 136.941406 103.570312 134.640625 105.269531 C 129.425781 108.820312 123.625 111.261719 117.332031 111.996094 C 112.339844 112.285156 107.628906 111.921875 102.765625 110.78125 L 102.765625 109.972656 L 103.695312 110.152344 C 111.238281 111.421875 118.566406 111.25 125.777344 108.582031 C 126.605469 108.242188 127.429688 107.898438 128.253906 107.546875 L 129.117188 107.199219 C 132.84375 105.546875 136.347656 102.515625 139.066406 99.527344 Z M 139.582031 99.050781 " fill-opacity="1" fill-rule="nonzero"/><path fill="#8152bd" d="M 21.859375 98.242188 L 22.667969 98.242188 C 23.050781 98.859375 23.414062 99.492188 23.753906 100.136719 C 24.699219 101.75 25.511719 102.941406 27.109375 103.921875 C 30.921875 105.738281 34.726562 105.664062 38.847656 105.523438 L 38.445312 106.738281 C 37.007812 107.4375 36.054688 107.546875 34.449219 107.445312 C 32.789062 107.175781 31.171875 106.765625 29.542969 106.332031 C 29.003906 106.195312 28.464844 106.0625 27.925781 105.929688 L 27.925781 105.117188 L 27.242188 105.042969 C 25.554688 104.449219 24.570312 103.007812 23.402344 101.707031 C 22.605469 100.582031 22.226562 99.5625 21.859375 98.242188 " fill-opacity="1" fill-rule="nonzero"/><path fill="#4a23a2" d="M 63.121094 121.300781 L 63.929688 121.300781 L 64.226562 122.292969 L 64.640625 123.601562 L 65.039062 124.894531 C 65.59375 126.261719 66.148438 127.117188 67.167969 128.179688 C 68.378906 129.015625 68.378906 129.015625 69.695312 129.71875 L 71.015625 130.460938 L 72.023438 131.011719 L 70.808594 131.414062 C 68.402344 130.554688 66.417969 128.859375 64.738281 126.964844 C 63.679688 125.074219 63.121094 123.472656 63.121094 121.300781 " fill-opacity="1" fill-rule="nonzero"/><path fill="#8152bd" d="M 25.5 96.21875 C 26.148438 96.84375 26.738281 97.464844 27.292969 98.171875 C 29.152344 100.53125 31.257812 101.886719 33.996094 103.097656 C 34.53125 103.246094 35.066406 103.390625 35.613281 103.5 L 35.613281 104.308594 C 33.089844 103.910156 31.257812 103.28125 29.171875 101.792969 C 27.839844 100.652344 26.769531 99.363281 25.902344 97.835938 C 25.636719 96.929688 25.636719 96.929688 25.5 96.21875 M 60.695312 64.664062 L 61.503906 64.664062 L 61.097656 65.878906 C 60.539062 66.25 59.976562 66.613281 59.40625 66.96875 C 57.917969 68.035156 56.703125 69.417969 55.4375 70.730469 C 54.898438 71.273438 54.359375 71.8125 53.816406 72.351562 L 53.816406 71.136719 C 55.625 68.558594 58.085938 66.402344 60.695312 64.664062 " fill-opacity="1" fill-rule="nonzero"/><path fill="#8253bd" d="M 140.390625 47.671875 C 141.652344 48.226562 142.449219 48.835938 143.347656 49.875 L 144 50.605469 L 144.4375 51.3125 L 144.03125 52.527344 C 142.867188 52.199219 142.867188 52.199219 141.605469 51.71875 L 140.792969 50.503906 L 141.605469 49.695312 Z M 140.390625 47.671875 " fill-opacity="1" fill-rule="nonzero"/><path fill="#8254bd" d="M 124.613281 53.742188 L 125.828125 54.144531 L 119.355469 58.191406 L 118.542969 57.382812 C 122.746094 54.496094 122.746094 54.496094 124.613281 53.742188 " fill-opacity="1" fill-rule="nonzero"/><path fill="#4a23a2" d="M 176.394531 90.152344 L 177.203125 90.152344 L 178.417969 93.792969 L 177.203125 93.792969 Z M 176.394531 90.152344 " fill-opacity="1" fill-rule="nonzero"/><path fill="#996dc8" d="M 20.644531 65.472656 L 21.859375 65.472656 L 21.859375 66.28125 L 22.667969 66.6875 C 21.597656 67.277344 21.09375 67.496094 19.835938 67.496094 Z M 20.644531 65.472656 " fill-opacity="1" fill-rule="nonzero"/><path fill="#4a23a2" d="M 178.011719 98.242188 L 179.632812 99.050781 L 179.632812 101.476562 L 178.820312 101.476562 C 178.3125 100.300781 178.011719 99.539062 178.011719 98.242188 " fill-opacity="1" fill-rule="nonzero"/><path fill="#8152bd" d="M 115.308594 59.808594 L 116.117188 59.808594 C 115.683594 60.859375 115.335938 61.40625 114.449219 62.136719 L 113.691406 62.640625 L 113.691406 61.429688 C 114.449219 60.542969 114.449219 60.542969 115.308594 59.808594 " fill-opacity="1" fill-rule="nonzero"/></svg>